<mxfile host="app.diagrams.net" agent="Mozilla/5.0 (Windows NT 10.0; Win64; x64) AppleWebKit/537.36 (KHTML, like Gecko) Chrome/136.0.0.0 Safari/537.36" version="26.2.14" pages="2">
  <diagram name="Pagina-3" id="WdsdcK6bDClHhAja2yAE">
    <mxGraphModel dx="1676" dy="636" grid="1" gridSize="10" guides="1" tooltips="1" connect="1" arrows="1" fold="1" page="1" pageScale="1" pageWidth="827" pageHeight="1169" math="0" shadow="0">
      <root>
        <mxCell id="0" />
        <mxCell id="1" parent="0" />
        <mxCell id="-wP4TRhqMFrlBuhKo1AS-1" value="Admin" style="shape=umlActor;verticalLabelPosition=bottom;verticalAlign=top;html=1;outlineConnect=0;" vertex="1" parent="1">
          <mxGeometry x="240" y="130" width="30" height="60" as="geometry" />
        </mxCell>
        <mxCell id="-wP4TRhqMFrlBuhKo1AS-2" value="Utente" style="shape=umlActor;verticalLabelPosition=bottom;verticalAlign=top;html=1;outlineConnect=0;" vertex="1" parent="1">
          <mxGeometry x="1211" y="130" width="30" height="60" as="geometry" />
        </mxCell>
        <mxCell id="-wP4TRhqMFrlBuhKo1AS-4" value="Agente Immobiliare" style="shape=umlActor;verticalLabelPosition=bottom;verticalAlign=top;html=1;outlineConnect=0;" vertex="1" parent="1">
          <mxGeometry x="827" y="120" width="30" height="60" as="geometry" />
        </mxCell>
        <mxCell id="-wP4TRhqMFrlBuhKo1AS-6" value="OpenMeteo" style="shape=umlActor;verticalLabelPosition=bottom;verticalAlign=top;html=1;outlineConnect=0;" vertex="1" parent="1">
          <mxGeometry x="1250" y="490" width="30" height="60" as="geometry" />
        </mxCell>
        <mxCell id="-wP4TRhqMFrlBuhKo1AS-7" value="SottoAdmin" style="shape=umlActor;verticalLabelPosition=bottom;verticalAlign=top;html=1;outlineConnect=0;" vertex="1" parent="1">
          <mxGeometry x="410" y="130" width="30" height="60" as="geometry" />
        </mxCell>
        <mxCell id="-wP4TRhqMFrlBuhKo1AS-22" value="Login Admin" style="ellipse;whiteSpace=wrap;html=1;align=center;" vertex="1" parent="1">
          <mxGeometry x="375" y="280" width="100" height="40" as="geometry" />
        </mxCell>
        <mxCell id="-wP4TRhqMFrlBuhKo1AS-23" value="Login Utente" style="ellipse;whiteSpace=wrap;html=1;align=center;" vertex="1" parent="1">
          <mxGeometry x="1360" y="230" width="100" height="40" as="geometry" />
        </mxCell>
        <mxCell id="-wP4TRhqMFrlBuhKo1AS-24" value="Login Agente" style="ellipse;whiteSpace=wrap;html=1;align=center;" vertex="1" parent="1">
          <mxGeometry x="870" y="340" width="100" height="40" as="geometry" />
        </mxCell>
        <mxCell id="-wP4TRhqMFrlBuhKo1AS-25" value="Creazione Agente" style="ellipse;whiteSpace=wrap;html=1;align=center;" vertex="1" parent="1">
          <mxGeometry x="563" y="130" width="100" height="40" as="geometry" />
        </mxCell>
        <mxCell id="-wP4TRhqMFrlBuhKo1AS-26" value="Modifica Credenziali" style="ellipse;whiteSpace=wrap;html=1;align=center;" vertex="1" parent="1">
          <mxGeometry x="560" y="290" width="100" height="40" as="geometry" />
        </mxCell>
        <mxCell id="-wP4TRhqMFrlBuhKo1AS-27" value="Creazione SottoAdmin" style="ellipse;whiteSpace=wrap;html=1;align=center;" vertex="1" parent="1">
          <mxGeometry x="200" y="280" width="100" height="40" as="geometry" />
        </mxCell>
        <mxCell id="-wP4TRhqMFrlBuhKo1AS-30" value="Caricamento Inserzione" style="ellipse;whiteSpace=wrap;html=1;align=center;" vertex="1" parent="1">
          <mxGeometry x="710" y="340" width="100" height="40" as="geometry" />
        </mxCell>
        <mxCell id="-wP4TRhqMFrlBuhKo1AS-31" value="Contatta Agente" style="ellipse;whiteSpace=wrap;html=1;align=center;" vertex="1" parent="1">
          <mxGeometry x="930" y="130" width="100" height="40" as="geometry" />
        </mxCell>
        <mxCell id="-wP4TRhqMFrlBuhKo1AS-32" value="Registrazione" style="ellipse;whiteSpace=wrap;html=1;align=center;" vertex="1" parent="1">
          <mxGeometry x="1060" y="250" width="100" height="40" as="geometry" />
        </mxCell>
        <mxCell id="-wP4TRhqMFrlBuhKo1AS-33" value="Ricerca" style="ellipse;whiteSpace=wrap;html=1;align=center;" vertex="1" parent="1">
          <mxGeometry x="1190" y="280" width="100" height="40" as="geometry" />
        </mxCell>
        <mxCell id="-wP4TRhqMFrlBuhKo1AS-35" value="Prenotazione" style="ellipse;whiteSpace=wrap;html=1;align=center;" vertex="1" parent="1">
          <mxGeometry x="1191" y="410" width="100" height="40" as="geometry" />
        </mxCell>
        <mxCell id="-wP4TRhqMFrlBuhKo1AS-37" value="&amp;lt;&amp;lt;extends&amp;gt;&amp;gt;" style="endArrow=open;endSize=12;dashed=1;html=1;rounded=0;exitX=0.416;exitY=1.041;exitDx=0;exitDy=0;exitPerimeter=0;entryX=0.5;entryY=0;entryDx=0;entryDy=0;" edge="1" parent="1" source="-wP4TRhqMFrlBuhKo1AS-33" target="-wP4TRhqMFrlBuhKo1AS-35">
          <mxGeometry x="-0.0097" width="160" relative="1" as="geometry">
            <mxPoint x="710" y="310" as="sourcePoint" />
            <mxPoint x="870" y="310" as="targetPoint" />
            <mxPoint as="offset" />
          </mxGeometry>
        </mxCell>
        <mxCell id="-wP4TRhqMFrlBuhKo1AS-38" value="&amp;lt;&amp;lt;extends&amp;gt;&amp;gt;" style="endArrow=open;endSize=12;dashed=1;html=1;rounded=0;entryX=0;entryY=0.5;entryDx=0;entryDy=0;exitX=0.614;exitY=1.023;exitDx=0;exitDy=0;exitPerimeter=0;edgeStyle=orthogonalEdgeStyle;" edge="1" parent="1" source="-wP4TRhqMFrlBuhKo1AS-31" target="-wP4TRhqMFrlBuhKo1AS-33">
          <mxGeometry x="-0.0097" width="160" relative="1" as="geometry">
            <mxPoint x="710" y="220" as="sourcePoint" />
            <mxPoint x="1251" y="420" as="targetPoint" />
            <mxPoint as="offset" />
          </mxGeometry>
        </mxCell>
        <mxCell id="-wP4TRhqMFrlBuhKo1AS-40" value="" style="endArrow=none;html=1;rounded=0;entryX=0;entryY=0.5;entryDx=0;entryDy=0;" edge="1" parent="1" source="-wP4TRhqMFrlBuhKo1AS-4" target="-wP4TRhqMFrlBuhKo1AS-31">
          <mxGeometry width="50" height="50" relative="1" as="geometry">
            <mxPoint x="780" y="270" as="sourcePoint" />
            <mxPoint x="830" y="220" as="targetPoint" />
          </mxGeometry>
        </mxCell>
        <mxCell id="-wP4TRhqMFrlBuhKo1AS-41" value="" style="endArrow=none;html=1;rounded=0;" edge="1" parent="1" target="-wP4TRhqMFrlBuhKo1AS-30">
          <mxGeometry width="50" height="50" relative="1" as="geometry">
            <mxPoint x="840" y="200" as="sourcePoint" />
            <mxPoint x="940" y="160" as="targetPoint" />
          </mxGeometry>
        </mxCell>
        <mxCell id="-wP4TRhqMFrlBuhKo1AS-42" value="" style="endArrow=none;html=1;rounded=0;entryX=0.5;entryY=0;entryDx=0;entryDy=0;" edge="1" parent="1" target="-wP4TRhqMFrlBuhKo1AS-24">
          <mxGeometry width="50" height="50" relative="1" as="geometry">
            <mxPoint x="870" y="200" as="sourcePoint" />
            <mxPoint x="780" y="350" as="targetPoint" />
          </mxGeometry>
        </mxCell>
        <mxCell id="-wP4TRhqMFrlBuhKo1AS-43" value="" style="endArrow=block;endSize=16;endFill=0;html=1;rounded=0;entryX=1;entryY=0.5;entryDx=0;entryDy=0;" edge="1" parent="1" target="-wP4TRhqMFrlBuhKo1AS-23">
          <mxGeometry width="160" relative="1" as="geometry">
            <mxPoint x="1550" y="210" as="sourcePoint" />
            <mxPoint x="1330" y="250" as="targetPoint" />
          </mxGeometry>
        </mxCell>
        <mxCell id="-wP4TRhqMFrlBuhKo1AS-44" value="Login Credenziali" style="ellipse;whiteSpace=wrap;html=1;align=center;" vertex="1" parent="1">
          <mxGeometry x="1540" y="300" width="100" height="40" as="geometry" />
        </mxCell>
        <mxCell id="-wP4TRhqMFrlBuhKo1AS-45" value="Login Google" style="ellipse;whiteSpace=wrap;html=1;align=center;" vertex="1" parent="1">
          <mxGeometry x="1540" y="190" width="100" height="40" as="geometry" />
        </mxCell>
        <mxCell id="-wP4TRhqMFrlBuhKo1AS-47" value="" style="endArrow=block;endSize=16;endFill=0;html=1;rounded=0;entryX=0.948;entryY=0.689;entryDx=0;entryDy=0;entryPerimeter=0;exitX=0;exitY=0.5;exitDx=0;exitDy=0;" edge="1" parent="1" source="-wP4TRhqMFrlBuhKo1AS-44" target="-wP4TRhqMFrlBuhKo1AS-23">
          <mxGeometry width="160" relative="1" as="geometry">
            <mxPoint x="1560" y="220" as="sourcePoint" />
            <mxPoint x="1470" y="260" as="targetPoint" />
          </mxGeometry>
        </mxCell>
        <mxCell id="-wP4TRhqMFrlBuhKo1AS-48" value="AWS" style="shape=umlActor;verticalLabelPosition=bottom;verticalAlign=top;html=1;outlineConnect=0;" vertex="1" parent="1">
          <mxGeometry x="1720" y="280" width="30" height="60" as="geometry" />
        </mxCell>
        <mxCell id="-wP4TRhqMFrlBuhKo1AS-49" value="Google" style="shape=umlActor;verticalLabelPosition=bottom;verticalAlign=top;html=1;outlineConnect=0;" vertex="1" parent="1">
          <mxGeometry x="1720" y="170" width="30" height="60" as="geometry" />
        </mxCell>
        <mxCell id="-wP4TRhqMFrlBuhKo1AS-51" value="" style="endArrow=none;html=1;rounded=0;exitX=0.993;exitY=0.341;exitDx=0;exitDy=0;exitPerimeter=0;" edge="1" parent="1" source="-wP4TRhqMFrlBuhKo1AS-45" target="-wP4TRhqMFrlBuhKo1AS-49">
          <mxGeometry width="50" height="50" relative="1" as="geometry">
            <mxPoint x="1350" y="270" as="sourcePoint" />
            <mxPoint x="1400" y="220" as="targetPoint" />
          </mxGeometry>
        </mxCell>
        <mxCell id="-wP4TRhqMFrlBuhKo1AS-52" value="" style="endArrow=none;html=1;rounded=0;exitX=1;exitY=0.5;exitDx=0;exitDy=0;" edge="1" parent="1" source="-wP4TRhqMFrlBuhKo1AS-44" target="-wP4TRhqMFrlBuhKo1AS-48">
          <mxGeometry width="50" height="50" relative="1" as="geometry">
            <mxPoint x="1649" y="214" as="sourcePoint" />
            <mxPoint x="1730" y="211" as="targetPoint" />
          </mxGeometry>
        </mxCell>
        <mxCell id="-wP4TRhqMFrlBuhKo1AS-53" value="" style="endArrow=none;html=1;rounded=0;entryX=0.5;entryY=0;entryDx=0;entryDy=0;" edge="1" parent="1" target="-wP4TRhqMFrlBuhKo1AS-33">
          <mxGeometry width="50" height="50" relative="1" as="geometry">
            <mxPoint x="1240" y="210" as="sourcePoint" />
            <mxPoint x="1730" y="211" as="targetPoint" />
          </mxGeometry>
        </mxCell>
        <mxCell id="-wP4TRhqMFrlBuhKo1AS-54" value="Modifica Credenziali" style="ellipse;whiteSpace=wrap;html=1;align=center;" vertex="1" parent="1">
          <mxGeometry x="1300" y="140" width="100" height="40" as="geometry" />
        </mxCell>
        <mxCell id="-wP4TRhqMFrlBuhKo1AS-55" value="" style="endArrow=none;html=1;rounded=0;" edge="1" parent="1" source="-wP4TRhqMFrlBuhKo1AS-2" target="-wP4TRhqMFrlBuhKo1AS-54">
          <mxGeometry width="50" height="50" relative="1" as="geometry">
            <mxPoint x="1250" y="220" as="sourcePoint" />
            <mxPoint x="1250" y="290" as="targetPoint" />
          </mxGeometry>
        </mxCell>
        <mxCell id="-wP4TRhqMFrlBuhKo1AS-56" value="" style="endArrow=none;html=1;rounded=0;" edge="1" parent="1" target="-wP4TRhqMFrlBuhKo1AS-23">
          <mxGeometry width="50" height="50" relative="1" as="geometry">
            <mxPoint x="1250" y="180" as="sourcePoint" />
            <mxPoint x="1310" y="170" as="targetPoint" />
          </mxGeometry>
        </mxCell>
        <mxCell id="-wP4TRhqMFrlBuhKo1AS-57" value="" style="endArrow=none;html=1;rounded=0;entryX=0.5;entryY=0;entryDx=0;entryDy=0;entryPerimeter=0;" edge="1" parent="1" source="-wP4TRhqMFrlBuhKo1AS-35" target="-wP4TRhqMFrlBuhKo1AS-6">
          <mxGeometry width="50" height="50" relative="1" as="geometry">
            <mxPoint x="1370" y="400" as="sourcePoint" />
            <mxPoint x="1420" y="350" as="targetPoint" />
          </mxGeometry>
        </mxCell>
        <mxCell id="-wP4TRhqMFrlBuhKo1AS-58" value="" style="endArrow=none;html=1;rounded=0;entryX=0.6;entryY=0;entryDx=0;entryDy=0;entryPerimeter=0;" edge="1" parent="1" target="-wP4TRhqMFrlBuhKo1AS-32">
          <mxGeometry width="50" height="50" relative="1" as="geometry">
            <mxPoint x="1200" y="180" as="sourcePoint" />
            <mxPoint x="1386" y="245" as="targetPoint" />
          </mxGeometry>
        </mxCell>
        <mxCell id="-wP4TRhqMFrlBuhKo1AS-59" value="" style="endArrow=none;html=1;rounded=0;entryX=0;entryY=0.5;entryDx=0;entryDy=0;" edge="1" parent="1" target="-wP4TRhqMFrlBuhKo1AS-25">
          <mxGeometry width="50" height="50" relative="1" as="geometry">
            <mxPoint x="450" y="160" as="sourcePoint" />
            <mxPoint x="930" y="360" as="targetPoint" />
          </mxGeometry>
        </mxCell>
        <mxCell id="-wP4TRhqMFrlBuhKo1AS-60" value="" style="endArrow=none;html=1;rounded=0;entryX=0;entryY=0;entryDx=0;entryDy=0;" edge="1" parent="1" target="-wP4TRhqMFrlBuhKo1AS-26">
          <mxGeometry width="50" height="50" relative="1" as="geometry">
            <mxPoint x="460" y="170" as="sourcePoint" />
            <mxPoint x="573" y="160" as="targetPoint" />
          </mxGeometry>
        </mxCell>
        <mxCell id="-wP4TRhqMFrlBuhKo1AS-61" value="" style="endArrow=none;html=1;rounded=0;entryX=0.5;entryY=0;entryDx=0;entryDy=0;" edge="1" parent="1" target="-wP4TRhqMFrlBuhKo1AS-22">
          <mxGeometry width="50" height="50" relative="1" as="geometry">
            <mxPoint x="425" y="210" as="sourcePoint" />
            <mxPoint x="585" y="306" as="targetPoint" />
          </mxGeometry>
        </mxCell>
        <mxCell id="-wP4TRhqMFrlBuhKo1AS-62" value="" style="endArrow=none;html=1;rounded=0;entryX=0.5;entryY=0;entryDx=0;entryDy=0;" edge="1" parent="1">
          <mxGeometry width="50" height="50" relative="1" as="geometry">
            <mxPoint x="254.58" y="210" as="sourcePoint" />
            <mxPoint x="254.58" y="280" as="targetPoint" />
          </mxGeometry>
        </mxCell>
        <mxCell id="-wP4TRhqMFrlBuhKo1AS-64" value="" style="endArrow=block;endSize=16;endFill=0;html=1;rounded=0;" edge="1" parent="1" source="-wP4TRhqMFrlBuhKo1AS-1" target="-wP4TRhqMFrlBuhKo1AS-7">
          <mxGeometry width="160" relative="1" as="geometry">
            <mxPoint x="380" y="140" as="sourcePoint" />
            <mxPoint x="290" y="180" as="targetPoint" />
          </mxGeometry>
        </mxCell>
        <mxCell id="-wP4TRhqMFrlBuhKo1AS-65" value="" style="endArrow=none;html=1;rounded=0;edgeStyle=orthogonalEdgeStyle;" edge="1" parent="1">
          <mxGeometry width="50" height="50" relative="1" as="geometry">
            <mxPoint x="424.5" y="320" as="sourcePoint" />
            <mxPoint x="1750" y="350" as="targetPoint" />
            <Array as="points">
              <mxPoint x="424" y="640" />
              <mxPoint x="1750" y="640" />
            </Array>
          </mxGeometry>
        </mxCell>
        <mxCell id="-wP4TRhqMFrlBuhKo1AS-66" value="" style="endArrow=none;html=1;rounded=0;edgeStyle=orthogonalEdgeStyle;exitX=0.371;exitY=1.053;exitDx=0;exitDy=0;exitPerimeter=0;" edge="1" parent="1" source="-wP4TRhqMFrlBuhKo1AS-24">
          <mxGeometry width="50" height="50" relative="1" as="geometry">
            <mxPoint x="434.5" y="330" as="sourcePoint" />
            <mxPoint x="1720" y="350" as="targetPoint" />
            <Array as="points">
              <mxPoint x="900" y="382" />
              <mxPoint x="900" y="620" />
              <mxPoint x="1720" y="620" />
              <mxPoint x="1720" y="350" />
            </Array>
          </mxGeometry>
        </mxCell>
      </root>
    </mxGraphModel>
  </diagram>
  <diagram name="Pagina-3" id="ogd4KC8jwl-Q6qPREY6D">
    <mxGraphModel dx="3092" dy="-1649" grid="1" gridSize="10" guides="1" tooltips="1" connect="1" arrows="1" fold="1" page="1" pageScale="1" pageWidth="827" pageHeight="1169" math="0" shadow="0">
      <root>
        <mxCell id="0" />
        <mxCell id="1" parent="0" />
        <mxCell id="4wMO9JpfCpaA2tnQ1esn-194" value="" style="swimlane;fontStyle=0;childLayout=stackLayout;horizontal=1;startSize=0;fillColor=none;horizontalStack=0;resizeParent=1;resizeParentMax=0;resizeLast=0;collapsible=1;marginBottom=0;whiteSpace=wrap;html=1;fontSize=16;movable=1;resizable=1;rotatable=1;deletable=1;editable=1;locked=0;connectable=1;" parent="1" vertex="1">
          <mxGeometry x="-521.5602678571428" y="3112.588169642857" width="200" height="144" as="geometry">
            <mxRectangle x="-460" y="200" width="50" height="40" as="alternateBounds" />
          </mxGeometry>
        </mxCell>
        <mxCell id="4wMO9JpfCpaA2tnQ1esn-195" value="&lt;p style=&quot;margin:0px;margin-top:4px;text-align:center;&quot;&gt;&lt;b&gt;Pagina&lt;/b&gt;&lt;/p&gt;&lt;hr size=&quot;1&quot;/&gt;" style="verticalAlign=top;align=left;overflow=fill;fontSize=14;fontFamily=Helvetica;html=1;rounded=0;shadow=0;comic=0;labelBackgroundColor=none;strokeWidth=1;" parent="4wMO9JpfCpaA2tnQ1esn-194" vertex="1">
          <mxGeometry width="200" height="30" as="geometry" />
        </mxCell>
        <mxCell id="4wMO9JpfCpaA2tnQ1esn-197" value="-titolo (String)" style="text;strokeColor=none;fillColor=none;align=left;verticalAlign=top;spacingLeft=4;spacingRight=4;overflow=hidden;rotatable=0;points=[[0,0.5],[1,0.5]];portConstraint=eastwest;whiteSpace=wrap;html=1;fontSize=16;" parent="4wMO9JpfCpaA2tnQ1esn-194" vertex="1">
          <mxGeometry y="30" width="200" height="26" as="geometry" />
        </mxCell>
        <mxCell id="4wMO9JpfCpaA2tnQ1esn-198" value="-dataCreazione(localDate)&lt;br&gt;-ora(localTIme)" style="text;strokeColor=none;fillColor=none;align=left;verticalAlign=top;spacingLeft=4;spacingRight=4;overflow=hidden;rotatable=0;points=[[0,0.5],[1,0.5]];portConstraint=eastwest;whiteSpace=wrap;html=1;fontSize=16;" parent="4wMO9JpfCpaA2tnQ1esn-194" vertex="1">
          <mxGeometry y="56" width="200" height="88" as="geometry" />
        </mxCell>
        <mxCell id="4wMO9JpfCpaA2tnQ1esn-199" value="" style="swimlane;fontStyle=0;childLayout=stackLayout;horizontal=1;startSize=0;fillColor=none;horizontalStack=0;resizeParent=1;resizeParentMax=0;resizeLast=0;collapsible=1;marginBottom=0;whiteSpace=wrap;html=1;fontSize=16;" parent="1" vertex="1">
          <mxGeometry x="-170.00026785714277" y="3178.588169642857" width="140" height="26" as="geometry" />
        </mxCell>
        <mxCell id="4wMO9JpfCpaA2tnQ1esn-200" value="-frase (String)" style="text;strokeColor=none;fillColor=none;align=left;verticalAlign=top;spacingLeft=4;spacingRight=4;overflow=hidden;rotatable=0;points=[[0,0.5],[1,0.5]];portConstraint=eastwest;whiteSpace=wrap;html=1;fontSize=16;" parent="4wMO9JpfCpaA2tnQ1esn-199" vertex="1">
          <mxGeometry width="140" height="26" as="geometry" />
        </mxCell>
        <mxCell id="4wMO9JpfCpaA2tnQ1esn-201" value="" style="swimlane;fontStyle=0;childLayout=stackLayout;horizontal=1;startSize=0;fillColor=none;horizontalStack=0;resizeParent=1;resizeParentMax=0;resizeLast=0;collapsible=1;marginBottom=0;whiteSpace=wrap;html=1;fontSize=16;" parent="1" vertex="1">
          <mxGeometry x="-1101.5602678571427" y="3105.588169642857" width="200" height="82" as="geometry" />
        </mxCell>
        <mxCell id="4wMO9JpfCpaA2tnQ1esn-202" value="&lt;p style=&quot;margin:0px;margin-top:4px;text-align:center;&quot;&gt;&lt;b&gt;Autore&lt;/b&gt;&lt;/p&gt;&lt;hr size=&quot;1&quot;/&gt;" style="verticalAlign=top;align=left;overflow=fill;fontSize=14;fontFamily=Helvetica;html=1;rounded=0;shadow=0;comic=0;labelBackgroundColor=none;strokeWidth=1;" parent="4wMO9JpfCpaA2tnQ1esn-201" vertex="1">
          <mxGeometry width="200" height="30" as="geometry" />
        </mxCell>
        <mxCell id="4wMO9JpfCpaA2tnQ1esn-203" value="-username (String)" style="text;strokeColor=none;fillColor=none;align=left;verticalAlign=top;spacingLeft=4;spacingRight=4;overflow=hidden;rotatable=0;points=[[0,0.5],[1,0.5]];portConstraint=eastwest;whiteSpace=wrap;html=1;fontSize=16;" parent="4wMO9JpfCpaA2tnQ1esn-201" vertex="1">
          <mxGeometry y="30" width="200" height="26" as="geometry" />
        </mxCell>
        <mxCell id="4wMO9JpfCpaA2tnQ1esn-204" value="-password(String)" style="text;strokeColor=none;fillColor=none;align=left;verticalAlign=top;spacingLeft=4;spacingRight=4;overflow=hidden;rotatable=0;points=[[0,0.5],[1,0.5]];portConstraint=eastwest;whiteSpace=wrap;html=1;fontSize=16;" parent="4wMO9JpfCpaA2tnQ1esn-201" vertex="1">
          <mxGeometry y="56" width="200" height="26" as="geometry" />
        </mxCell>
        <mxCell id="4wMO9JpfCpaA2tnQ1esn-205" value="" style="swimlane;fontStyle=0;childLayout=stackLayout;horizontal=1;startSize=0;fillColor=none;horizontalStack=0;resizeParent=1;resizeParentMax=0;resizeLast=0;collapsible=1;marginBottom=0;whiteSpace=wrap;html=1;fontSize=16;" parent="1" vertex="1">
          <mxGeometry x="-1061.5602678571427" y="3345.588169642857" width="190" height="56" as="geometry" />
        </mxCell>
        <mxCell id="4wMO9JpfCpaA2tnQ1esn-206" value="&lt;p style=&quot;margin:0px;margin-top:4px;text-align:center;&quot;&gt;&lt;b&gt;Modifica&lt;/b&gt;&lt;/p&gt;" style="verticalAlign=top;align=left;overflow=fill;fontSize=14;fontFamily=Helvetica;html=1;rounded=0;shadow=0;comic=0;labelBackgroundColor=none;strokeWidth=1;" parent="4wMO9JpfCpaA2tnQ1esn-205" vertex="1">
          <mxGeometry width="190" height="30" as="geometry" />
        </mxCell>
        <mxCell id="4wMO9JpfCpaA2tnQ1esn-207" value="frase" style="text;strokeColor=none;fillColor=none;align=left;verticalAlign=top;spacingLeft=4;spacingRight=4;overflow=hidden;rotatable=0;points=[[0,0.5],[1,0.5]];portConstraint=eastwest;whiteSpace=wrap;html=1;fontSize=16;" parent="4wMO9JpfCpaA2tnQ1esn-205" vertex="1">
          <mxGeometry y="30" width="190" height="26" as="geometry" />
        </mxCell>
        <mxCell id="4wMO9JpfCpaA2tnQ1esn-208" style="edgeStyle=none;curved=1;rounded=0;orthogonalLoop=1;jettySize=auto;html=1;exitX=0;exitY=0.75;exitDx=0;exitDy=0;fontSize=12;startSize=8;endSize=8;" parent="4wMO9JpfCpaA2tnQ1esn-205" source="4wMO9JpfCpaA2tnQ1esn-206" target="4wMO9JpfCpaA2tnQ1esn-206" edge="1">
          <mxGeometry relative="1" as="geometry" />
        </mxCell>
        <mxCell id="4wMO9JpfCpaA2tnQ1esn-209" value="&lt;div style=&quot;text-align: center;&quot;&gt;&lt;b style=&quot;background-color: initial;&quot;&gt;FraseTesto&lt;/b&gt;&lt;/div&gt;&lt;p style=&quot;margin:0px;margin-top:4px;text-align:center;&quot;&gt;&lt;/p&gt;" style="verticalAlign=top;align=left;overflow=fill;fontSize=14;fontFamily=Helvetica;html=1;rounded=0;shadow=0;comic=0;labelBackgroundColor=none;strokeWidth=1;" parent="1" vertex="1">
          <mxGeometry x="-170.00026785714277" y="3148.588169642857" width="140" height="30" as="geometry" />
        </mxCell>
        <mxCell id="4wMO9JpfCpaA2tnQ1esn-210" value="" style="endArrow=none;html=1;rounded=0;fontSize=12;startSize=8;endSize=8;curved=1;entryX=1;entryY=0.5;entryDx=0;entryDy=0;exitX=0;exitY=0.25;exitDx=0;exitDy=0;" parent="1" source="4wMO9JpfCpaA2tnQ1esn-209" edge="1">
          <mxGeometry relative="1" as="geometry">
            <mxPoint x="-681.5602678571428" y="3315.588169642857" as="sourcePoint" />
            <mxPoint x="-321.56026785714266" y="3155.588169642857" as="targetPoint" />
          </mxGeometry>
        </mxCell>
        <mxCell id="4wMO9JpfCpaA2tnQ1esn-211" value="" style="endArrow=none;html=1;rounded=0;fontSize=12;startSize=8;endSize=8;curved=1;entryX=0.002;entryY=0.347;entryDx=0;entryDy=0;entryPerimeter=0;exitX=1;exitY=0.25;exitDx=0;exitDy=0;" parent="1" source="4wMO9JpfCpaA2tnQ1esn-206" target="4wMO9JpfCpaA2tnQ1esn-198" edge="1">
          <mxGeometry relative="1" as="geometry">
            <mxPoint x="-681.5602678571428" y="3315.588169642857" as="sourcePoint" />
            <mxPoint x="-521.5602678571428" y="3315.588169642857" as="targetPoint" />
          </mxGeometry>
        </mxCell>
        <mxCell id="4wMO9JpfCpaA2tnQ1esn-212" value="" style="endArrow=none;html=1;rounded=0;fontSize=12;startSize=8;endSize=8;curved=1;entryX=1.043;entryY=0.6;entryDx=0;entryDy=0;entryPerimeter=0;exitX=0;exitY=0.5;exitDx=0;exitDy=0;" parent="1" source="4wMO9JpfCpaA2tnQ1esn-197" target="4wMO9JpfCpaA2tnQ1esn-201" edge="1">
          <mxGeometry relative="1" as="geometry">
            <mxPoint x="-681.5602678571428" y="3315.588169642857" as="sourcePoint" />
            <mxPoint x="-521.5602678571428" y="3315.588169642857" as="targetPoint" />
          </mxGeometry>
        </mxCell>
        <mxCell id="4wMO9JpfCpaA2tnQ1esn-214" value="" style="endArrow=none;html=1;rounded=0;fontSize=12;startSize=8;endSize=8;curved=1;exitX=0.432;exitY=1.192;exitDx=0;exitDy=0;exitPerimeter=0;" parent="1" source="4wMO9JpfCpaA2tnQ1esn-204" target="4wMO9JpfCpaA2tnQ1esn-205" edge="1">
          <mxGeometry relative="1" as="geometry">
            <mxPoint x="-681.5602678571428" y="3315.588169642857" as="sourcePoint" />
            <mxPoint x="-521.5602678571428" y="3315.588169642857" as="targetPoint" />
          </mxGeometry>
        </mxCell>
        <mxCell id="4wMO9JpfCpaA2tnQ1esn-215" value="1" style="text;html=1;align=center;verticalAlign=middle;resizable=0;points=[];autosize=1;strokeColor=none;fillColor=none;fontSize=16;" parent="1" vertex="1">
          <mxGeometry x="-896.5602678571428" y="3123.588169642857" width="30" height="30" as="geometry" />
        </mxCell>
        <mxCell id="4wMO9JpfCpaA2tnQ1esn-216" value="0,*" style="text;html=1;align=center;verticalAlign=middle;resizable=0;points=[];autosize=1;strokeColor=none;fillColor=none;fontSize=16;" parent="1" vertex="1">
          <mxGeometry x="-556.5602678571428" y="3148.588169642857" width="40" height="30" as="geometry" />
        </mxCell>
        <mxCell id="4wMO9JpfCpaA2tnQ1esn-217" value="1" style="text;html=1;align=center;verticalAlign=middle;resizable=0;points=[];autosize=1;strokeColor=none;fillColor=none;fontSize=16;" parent="1" vertex="1">
          <mxGeometry x="-1011.5602678571428" y="3187.588169642857" width="30" height="30" as="geometry" />
        </mxCell>
        <mxCell id="4wMO9JpfCpaA2tnQ1esn-218" value="0,*" style="text;html=1;align=center;verticalAlign=middle;resizable=0;points=[];autosize=1;strokeColor=none;fillColor=none;fontSize=16;" parent="1" vertex="1">
          <mxGeometry x="-981.5602678571428" y="3313.588169642857" width="40" height="30" as="geometry" />
        </mxCell>
        <mxCell id="4wMO9JpfCpaA2tnQ1esn-219" value="1" style="text;html=1;align=center;verticalAlign=middle;resizable=0;points=[];autosize=1;strokeColor=none;fillColor=none;fontSize=16;" parent="1" vertex="1">
          <mxGeometry x="-556.5602678571428" y="3204.588169642857" width="30" height="30" as="geometry" />
        </mxCell>
        <mxCell id="4wMO9JpfCpaA2tnQ1esn-220" value="0,*" style="text;html=1;align=center;verticalAlign=middle;resizable=0;points=[];autosize=1;strokeColor=none;fillColor=none;fontSize=16;" parent="1" vertex="1">
          <mxGeometry x="-871.5602678571428" y="3315.588169642857" width="40" height="30" as="geometry" />
        </mxCell>
        <mxCell id="4wMO9JpfCpaA2tnQ1esn-221" value="1" style="text;html=1;align=center;verticalAlign=middle;resizable=0;points=[];autosize=1;strokeColor=none;fillColor=none;fontSize=16;" parent="1" vertex="1">
          <mxGeometry x="-321.5602678571428" y="3126.588169642857" width="30" height="30" as="geometry" />
        </mxCell>
        <mxCell id="4wMO9JpfCpaA2tnQ1esn-222" value="1,*" style="text;html=1;align=center;verticalAlign=middle;resizable=0;points=[];autosize=1;strokeColor=none;fillColor=none;fontSize=16;" parent="1" vertex="1">
          <mxGeometry x="-210.00026785714277" y="3126.588169642857" width="40" height="30" as="geometry" />
        </mxCell>
        <mxCell id="_piYChJggfYMcK1N6pH9-2" value="" style="endArrow=none;html=1;rounded=0;fontSize=12;startSize=8;endSize=8;curved=1;entryX=1.008;entryY=0.458;entryDx=0;entryDy=0;entryPerimeter=0;exitX=-0.012;exitY=1.026;exitDx=0;exitDy=0;exitPerimeter=0;" edge="1" parent="1" source="4wMO9JpfCpaA2tnQ1esn-200" target="4wMO9JpfCpaA2tnQ1esn-198">
          <mxGeometry relative="1" as="geometry">
            <mxPoint x="-200" y="3220" as="sourcePoint" />
            <mxPoint x="-312" y="3166" as="targetPoint" />
          </mxGeometry>
        </mxCell>
        <mxCell id="_piYChJggfYMcK1N6pH9-3" value="Collegamento" style="text;html=1;align=center;verticalAlign=middle;whiteSpace=wrap;rounded=0;" vertex="1" parent="1">
          <mxGeometry x="-270" y="3204.59" width="60" height="30" as="geometry" />
        </mxCell>
        <mxCell id="_piYChJggfYMcK1N6pH9-4" value="&lt;span style=&quot;color: rgb(0, 0, 0); font-family: Helvetica; font-size: 16px; font-style: normal; font-variant-ligatures: normal; font-variant-caps: normal; font-weight: 400; letter-spacing: normal; orphans: 2; text-align: center; text-indent: 0px; text-transform: none; widows: 2; word-spacing: 0px; -webkit-text-stroke-width: 0px; white-space: nowrap; background-color: rgb(251, 251, 251); text-decoration-thickness: initial; text-decoration-style: initial; text-decoration-color: initial; display: inline !important; float: none;&quot;&gt;0,1&lt;/span&gt;" style="text;whiteSpace=wrap;html=1;" vertex="1" parent="1">
          <mxGeometry x="-310" y="3177.59" width="50" height="40" as="geometry" />
        </mxCell>
        <mxCell id="_piYChJggfYMcK1N6pH9-7" value="&lt;span style=&quot;color: rgb(0, 0, 0); font-family: Helvetica; font-size: 16px; font-style: normal; font-variant-ligatures: normal; font-variant-caps: normal; font-weight: 400; letter-spacing: normal; orphans: 2; text-align: center; text-indent: 0px; text-transform: none; widows: 2; word-spacing: 0px; -webkit-text-stroke-width: 0px; white-space: nowrap; background-color: rgb(251, 251, 251); text-decoration-thickness: initial; text-decoration-style: initial; text-decoration-color: initial; display: inline !important; float: none;&quot;&gt;0,*&lt;/span&gt;" style="text;whiteSpace=wrap;html=1;" vertex="1" parent="1">
          <mxGeometry x="-210" y="3177.59" width="50" height="40" as="geometry" />
        </mxCell>
      </root>
    </mxGraphModel>
  </diagram>
</mxfile>
